<svg xmlns="http://www.w3.org/2000/svg" viewBox="0 0 512 512" width="512" height="512" role="img" aria-label="Aurora Organics">
  <title>Aurora Organics</title>
  <!-- Generated by scripts/generate-brand-logo.ts. Mark only: Android masks
       crop to the middle 80%, which a wordmark cannot survive. -->
  <defs>
    <path id="leaf" d="M0 0 C.34 -.17 .74 -.17 1 0 C.74 .17 .34 .17 0 0 Z"/>
  </defs>
  <rect width="512" height="512" fill="#ffffff"/>
  <g transform="translate(74 66) scale(0.72)">
    <path d="M116 470 L258 60 L400 470" fill="none" stroke="#111111" stroke-width="22" stroke-linecap="butt" stroke-linejoin="miter"/>
    <g fill="#111111">
      <path d="M84 213 C 132 224 176 250 210 278 C 244 306 268 326 292 341 C 318 352 344 356 372 357" fill="none" stroke="#111111" stroke-width="7" stroke-linecap="round"/>
      <ellipse cx="69" cy="208" rx="17" ry="13" transform="rotate(-16 69 208)"/>
      <use href="#leaf" transform="translate(136 238) rotate(-62) scale(54)"/>
      <use href="#leaf" transform="translate(216 283) rotate(-70) scale(46)"/>
      <use href="#leaf" transform="translate(264 315) rotate(-49) scale(60)"/>
      <use href="#leaf" transform="translate(283 335) rotate(-24) scale(60)"/>
      <use href="#leaf" transform="translate(316 347) rotate(-20) scale(52)"/>
      <use href="#leaf" transform="translate(290 342) rotate(156) scale(58)"/>
      <use href="#leaf" transform="translate(290 343) rotate(139) scale(58)"/>
    </g>
  </g>
</svg>
